# xmcd
#
# Track frame offsets:
#	150
#	25822
#	47167
#	69367
#	92107
#	114332
#	142360
#	166310
#	185922
#	214837
#
# Disc length: 3127 seconds
#
# Revision: 1
# Processed by: cddbd v1.5.2PL0 Copyright (c) Steve Scherf et al.
# Submitted via: EZCDAudioConverter 8.0.2.1
#
DISCID=940c350a
DTITLE=Chế Linh - Em Bên Đời Ngẩn Ngơ
DYEAR=1996
DGENRE=Miscellaneous
TTITLE0=Em Bên Đời Ngẩn Ngơ
TTITLE1=Thương tình nhân
TTITLE2=Đêm tóc rối
TTITLE3=Vòng tay cho đời
TTITLE4=Giọt lệ tình
TTITLE5=Đoạn buồn cho tôi
TTITLE6=Mộng sầu
TTITLE7=Sương lạnh chiều đông
TTITLE8=Người phu kéo mo cau
TTITLE9=Đà Lạt hoàng hôn
EXTD=
EXTT0=
EXTT1=
EXTT2=
EXTT3=
EXTT4=
EXTT5=
EXTT6=
EXTT7=
EXTT8=
EXTT9=
PLAYORDER=
